<svg xmlns="http://www.w3.org/2000/svg" width="40" height="40">
    <g fill="none" fill-rule="nonzero" transform="translate(6 4)">
        <path fill="#FFC131" d="M19.81 11.645a3.045 3.045 0 1 1-6.09 0 3.045 3.045 0 0 1 6.09 0Z"/>
        <circle cx="11.643" cy="20.366" r="3.045" fill="#24C8DB" transform="rotate(-180 11.643 20.366)"/>
        <path fill="#FFC131" d="M23.077 21.404a11.627 11.627 0 0 1-4.015 1.633c.414-1.18.552-2.44.402-3.682a8.167 8.167 0 1 0-9.33-12.471c-1.549.174-3.057.614-4.457 1.301a11.627 11.627 0 1 1 17.4 13.219ZM5.816 10.303l2.851.346c.065-.55.185-1.093.36-1.62-1.128.263-2.21.692-3.211 1.274Z"/>
        <path fill="#24C8DB" d="M5.317 10.607A11.627 11.627 0 0 1 9.36 8.96a8.153 8.153 0 0 0-.456 3.696 8.167 8.167 0 1 0 9.37 12.457 13.565 13.565 0 0 0 4.457-1.287A11.627 11.627 0 1 1 5.317 10.607Zm17.261 11.101-.055.028.055-.028Z"/>
    </g>
</svg>
