<svg xmlns="http://www.w3.org/2000/svg" width="16" height="16">
    <g fill="none" fill-rule="nonzero" transform="translate(2 2)">
        <path fill="#FFC131" d="M7.924 4.658a1.218 1.218 0 1 1-2.436 0 1.218 1.218 0 0 1 2.436 0Z"/>
        <circle cx="4.657" cy="8.146" r="1.218" fill="#24C8DB" transform="rotate(-180 4.657 8.146)"/>
        <path fill="#FFC131" d="M9.23 8.562a4.65 4.65 0 0 1-1.605.653c.166-.472.22-.976.16-1.473a3.267 3.267 0 1 0-3.731-4.988c-.62.07-1.223.245-1.783.52a4.65 4.65 0 1 1 6.96 5.288Zm-6.904-4.44 1.14.138c.027-.22.075-.438.145-.648a4.65 4.65 0 0 0-1.285.51Z"/>
        <path fill="#24C8DB" d="M2.127 4.243a4.65 4.65 0 0 1 1.617-.659 3.261 3.261 0 0 0-.183 1.478 3.267 3.267 0 1 0 3.748 4.983 5.426 5.426 0 0 0 1.783-.515 4.65 4.65 0 1 1-6.965-5.287ZM9.063 8.7l-.04.02.04-.02Z"/>
    </g>
</svg>
